<svg width="68" height="45" viewBox="0 0 68 45" fill="none" xmlns="http://www.w3.org/2000/svg">
<path d="M34.5 4L25.1667 13.3333V26.6667C25.1667 27.403 25.7636 28 26.5 28H30.5C31.2364 28 31.8333 27.403 31.8333 26.6667V21.3333C31.8333 20.597 32.4303 20 33.1667 20H35.8333C36.5697 20 37.1667 20.597 37.1667 21.3333V26.6667C37.1667 27.403 37.7636 28 38.5 28H42.5C43.2364 28 43.8333 27.403 43.8333 26.6667V13.3333L34.5 4Z" fill="#7E7E7E"/>
<path d="M22.5 16L25.1667 13.3333M25.1667 13.3333L34.5 4L43.8333 13.3333M25.1667 13.3333V26.6667C25.1667 27.403 25.7636 28 26.5 28H30.5M43.8333 13.3333L46.5 16M43.8333 13.3333V26.6667C43.8333 27.403 43.2364 28 42.5 28H38.5M30.5 28C31.2364 28 31.8333 27.403 31.8333 26.6667V21.3333C31.8333 20.597 32.4303 20 33.1667 20H35.8333C36.5697 20 37.1667 20.597 37.1667 21.3333V26.6667C37.1667 27.403 37.7636 28 38.5 28M30.5 28H38.5" stroke="#7E7E7E" stroke-width="1.5" stroke-linecap="round" stroke-linejoin="round"/>
<path d="M25.1359 42V35H26.2159V42H25.1359ZM20.5659 42V35H21.6459V42H20.5659ZM21.0359 39.03V37.99H25.6159V39.03H21.0359ZM30.2734 42.1C29.76 42.1 29.3 41.9833 28.8934 41.75C28.4934 41.51 28.1767 41.1867 27.9434 40.78C27.71 40.3667 27.5934 39.8967 27.5934 39.37C27.5934 38.8433 27.71 38.3767 27.9434 37.97C28.1767 37.5567 28.4934 37.2333 28.8934 37C29.3 36.76 29.76 36.64 30.2734 36.64C30.78 36.64 31.2334 36.76 31.6334 37C32.04 37.2333 32.36 37.5567 32.5934 37.97C32.8267 38.3767 32.9434 38.8433 32.9434 39.37C32.9434 39.8967 32.8267 40.3667 32.5934 40.78C32.36 41.1867 32.04 41.51 31.6334 41.75C31.2334 41.9833 30.78 42.1 30.2734 42.1ZM30.2734 41.16C30.5867 41.16 30.8667 41.0833 31.1134 40.93C31.36 40.77 31.5534 40.5567 31.6934 40.29C31.8334 40.0167 31.9 39.71 31.8934 39.37C31.9 39.0233 31.8334 38.7167 31.6934 38.45C31.5534 38.1767 31.36 37.9633 31.1134 37.81C30.8667 37.6567 30.5867 37.58 30.2734 37.58C29.96 37.58 29.6767 37.66 29.4234 37.82C29.1767 37.9733 28.9834 38.1867 28.8434 38.46C28.7034 38.7267 28.6367 39.03 28.6434 39.37C28.6367 39.71 28.7034 40.0167 28.8434 40.29C28.9834 40.5567 29.1767 40.77 29.4234 40.93C29.6767 41.0833 29.96 41.16 30.2734 41.16ZM34.0457 42V36.75H35.0857V37.87L34.8957 37.99C34.949 37.8167 35.0324 37.65 35.1457 37.49C35.2657 37.33 35.409 37.19 35.5757 37.07C35.749 36.9433 35.9324 36.8433 36.1257 36.77C36.3257 36.6967 36.529 36.66 36.7357 36.66C37.0357 36.66 37.299 36.71 37.5257 36.81C37.7524 36.91 37.939 37.06 38.0857 37.26C38.2324 37.46 38.339 37.71 38.4057 38.01L38.2457 37.97L38.3157 37.8C38.389 37.6467 38.489 37.5033 38.6157 37.37C38.749 37.23 38.899 37.1067 39.0657 37C39.2324 36.8933 39.409 36.81 39.5957 36.75C39.7824 36.69 39.9657 36.66 40.1457 36.66C40.539 36.66 40.8624 36.74 41.1157 36.9C41.3757 37.06 41.569 37.3033 41.6957 37.63C41.829 37.9567 41.8957 38.3633 41.8957 38.85V42H40.8557V38.91C40.8557 38.61 40.8157 38.3667 40.7357 38.18C40.6624 37.9867 40.549 37.8433 40.3957 37.75C40.2424 37.6567 40.0457 37.61 39.8057 37.61C39.619 37.61 39.4424 37.6433 39.2757 37.71C39.1157 37.77 38.9757 37.8567 38.8557 37.97C38.7357 38.0833 38.6424 38.2167 38.5757 38.37C38.509 38.5167 38.4757 38.68 38.4757 38.86V42H37.4357V38.89C37.4357 38.6167 37.3957 38.3867 37.3157 38.2C37.2357 38.0067 37.119 37.86 36.9657 37.76C36.8124 37.66 36.6257 37.61 36.4057 37.61C36.219 37.61 36.0457 37.6433 35.8857 37.71C35.7257 37.77 35.5857 37.8567 35.4657 37.97C35.3457 38.0767 35.2524 38.2067 35.1857 38.36C35.119 38.5067 35.0857 38.6667 35.0857 38.84V42H34.0457ZM45.7247 42.1C45.1847 42.1 44.7047 41.9867 44.2847 41.76C43.8714 41.5267 43.5447 41.21 43.3047 40.81C43.0714 40.41 42.9547 39.95 42.9547 39.43C42.9547 39.0167 43.0214 38.64 43.1547 38.3C43.288 37.96 43.4714 37.6667 43.7047 37.42C43.9447 37.1667 44.228 36.9733 44.5547 36.84C44.888 36.7 45.248 36.63 45.6347 36.63C45.9747 36.63 46.2914 36.6967 46.5847 36.83C46.878 36.9567 47.1314 37.1333 47.3447 37.36C47.5647 37.5867 47.7314 37.8567 47.8447 38.17C47.9647 38.4767 48.0214 38.8133 48.0147 39.18L48.0047 39.62H43.7147L43.4847 38.8H47.1147L46.9647 38.97V38.73C46.9447 38.51 46.8714 38.3133 46.7447 38.14C46.618 37.9667 46.458 37.83 46.2647 37.73C46.0714 37.63 45.8614 37.58 45.6347 37.58C45.2747 37.58 44.9714 37.65 44.7247 37.79C44.478 37.9233 44.2914 38.1233 44.1647 38.39C44.038 38.65 43.9747 38.9733 43.9747 39.36C43.9747 39.7267 44.0514 40.0467 44.2047 40.32C44.358 40.5867 44.5747 40.7933 44.8547 40.94C45.1347 41.0867 45.458 41.16 45.8247 41.16C46.0847 41.16 46.3247 41.1167 46.5447 41.03C46.7714 40.9433 47.0147 40.7867 47.2747 40.56L47.7947 41.29C47.6347 41.45 47.438 41.59 47.2047 41.71C46.978 41.83 46.7347 41.9267 46.4747 42C46.2214 42.0667 45.9714 42.1 45.7247 42.1Z" fill="#7E7E7E"/>
</svg>
