<svg width="58" height="45" viewBox="0 0 58 45" fill="none" xmlns="http://www.w3.org/2000/svg">
<path d="M29 30C21.3 30 15 23.7 15 16C15 8.3 21.3 2 29 2C36.7 2 43 8.3 43 16C43 23.7 36.7 30 29 30ZM29 3C21.8 3 16 8.8 16 16C16 23.2 21.8 29 29 29C36.2 29 42 23.2 42 16C42 8.8 36.2 3 29 3Z" fill="#7E7E7E"/>
<path d="M29 25C28 25 27.1 24.8 26.2 24.5C25.9 24.4 25.8 24.1 25.9 23.9C26 23.6 26.3 23.5 26.5 23.6C28.3 24.2 30.2 24.1 31.9 23.5C32.2 23.4 32.4 23.5 32.5 23.8C32.6 24.1 32.5 24.3 32.2 24.4C31.2 24.8 30.1 25 29 25ZM34 23.4C33.8 23.4 33.7 23.3 33.6 23.2C33.4 23 33.5 22.7 33.7 22.5C35.8 21 37 18.5 37 16C37 14.1 36.3 12.3 35.1 10.8C34.9 10.6 34.9 10.3 35.2 10.1C35.4 9.9 35.7 9.9 35.9 10.2C37.3 11.8 38 13.9 38 16C38 18.9 36.6 21.6 34.3 23.3C34.2 23.3 34.1 23.4 34 23.4ZM31.9 8.5H31.7C30.4 8 29 7.9 27.6 8.1C27.3 8.1 27.1 8 27 7.7C27 7.4 27.1 7.2 27.4 7.1C29 6.9 30.6 7 32.1 7.5C32.4 7.6 32.5 7.9 32.4 8.1C32.3 8.4 32.1 8.5 31.9 8.5ZM24.5 23.7C24.4 23.7 24.3 23.7 24.2 23.6C21.6 22 20 19.1 20 16C20 13.4 21.2 10.9 23.2 9.1C23.4 9 23.7 9 23.9 9.2C24.1 9.4 24.1 9.7 23.8 9.9C22 11.4 21 13.6 21 16C21 18.8 22.4 21.3 24.8 22.8C25 22.9 25.1 23.3 25 23.5C24.8 23.6 24.7 23.7 24.5 23.7ZM25.5 13.5C25.2 13.5 25 13.3 25 13V7.5C25 7.2 25.2 7 25.5 7C25.8 7 26 7.2 26 7.5V13C26 13.3 25.8 13.5 25.5 13.5Z" fill="#7E7E7E"/>
<path d="M25.5 25C24.7 25 24 24.3 24 23.5V14.7L23.1 13.8C23 13.7 23 13.6 23 13.4V7.4C23 7.2 23.2 7 23.5 7C23.8 7 24 7.2 24 7.5V13.3L24.9 14.2C25 14.3 25 14.4 25 14.6V23.6C25 23.9 25.2 24.1 25.5 24.1C25.8 24.1 26 23.9 26 23.6V14.6C26 14.5 26.1 14.3 26.1 14.2L27 13.3V7.5C27 7.2 27.2 7 27.5 7C27.8 7 28 7.2 28 7.5V13.5C28 13.6 27.9 13.8 27.9 13.9L27 14.7V23.5C27 24.3 26.3 25 25.5 25ZM33 25C32.2 25 31.5 24.3 31.5 23.5V15.4C31.5 15 31.4 14.7 31.2 14.5C31.1 14.4 31 14.2 30.9 14.1C30.2 13.2 30 12.3 30.1 11.2C30.3 10 30.6 9 31.2 8.2C31.4 7.9 31.8 7.6 32.1 7.4C32.7 7 33.4 7 34 7.4C34.3 7.6 34.7 7.9 34.9 8.2C35.5 9 35.9 10 36 11.2C36.1 12.3 35.9 13.2 35.2 14.1C35.1 14.2 35 14.4 34.9 14.5C34.7 14.8 34.6 15.1 34.6 15.4V23.5C34.5 24.3 33.8 25 33 25ZM33 8C32.9 8 32.7 8 32.6 8.1C32.4 8.3 32.1 8.5 32 8.7C31.5 9.4 31.2 10.2 31.1 11.2C31 12 31.2 12.7 31.7 13.4C31.8 13.5 31.9 13.6 32 13.8C32.4 14.2 32.6 14.8 32.6 15.4V23.5C32.6 23.8 32.8 24 33.1 24C33.4 24 33.6 23.8 33.6 23.5V15.4C33.6 14.8 33.8 14.2 34.2 13.8C34.3 13.7 34.4 13.6 34.5 13.4C35 12.7 35.2 12 35.1 11.2C35 10.2 34.7 9.3 34.2 8.7L33.6 8.1C33.3 8 33.1 8 33 8Z" fill="#7E7E7E"/>
<path d="M16.5868 42.1C16.0934 42.1 15.6368 42.01 15.2168 41.83C14.8034 41.65 14.4401 41.4 14.1268 41.08C13.8201 40.7533 13.5801 40.3733 13.4068 39.94C13.2401 39.5 13.1568 39.02 13.1568 38.5C13.1568 37.98 13.2401 37.5033 13.4068 37.07C13.5801 36.63 13.8201 36.25 14.1268 35.93C14.4401 35.6033 14.8034 35.35 15.2168 35.17C15.6368 34.99 16.0934 34.9 16.5868 34.9C17.0801 34.9 17.5334 34.99 17.9468 35.17C18.3668 35.35 18.7301 35.6033 19.0368 35.93C19.3501 36.2567 19.5901 36.64 19.7568 37.08C19.9301 37.5133 20.0168 37.9867 20.0168 38.5C20.0168 39.0133 19.9301 39.49 19.7568 39.93C19.5901 40.3633 19.3501 40.7433 19.0368 41.07C18.7301 41.3967 18.3668 41.65 17.9468 41.83C17.5334 42.01 17.0801 42.1 16.5868 42.1ZM16.5868 41.05C16.9268 41.05 17.2368 40.9867 17.5168 40.86C17.8034 40.7333 18.0501 40.5567 18.2568 40.33C18.4634 40.0967 18.6234 39.8267 18.7368 39.52C18.8568 39.2067 18.9168 38.8667 18.9168 38.5C18.9168 38.1333 18.8568 37.7967 18.7368 37.49C18.6234 37.1767 18.4634 36.9067 18.2568 36.68C18.0501 36.4467 17.8034 36.2667 17.5168 36.14C17.2368 36.0133 16.9268 35.95 16.5868 35.95C16.2468 35.95 15.9334 36.0133 15.6468 36.14C15.3668 36.2667 15.1201 36.4433 14.9068 36.67C14.7001 36.8967 14.5401 37.1667 14.4268 37.48C14.3134 37.7867 14.2568 38.1267 14.2568 38.5C14.2568 38.8667 14.3134 39.2067 14.4268 39.52C14.5401 39.8333 14.7001 40.1033 14.9068 40.33C15.1201 40.5567 15.3668 40.7333 15.6468 40.86C15.9334 40.9867 16.2468 41.05 16.5868 41.05ZM21.219 42V36.75H22.259V38.4L22.159 38C22.2324 37.7467 22.3557 37.5167 22.529 37.31C22.709 37.1033 22.9124 36.94 23.139 36.82C23.3724 36.7 23.6124 36.64 23.859 36.64C23.9724 36.64 24.079 36.65 24.179 36.67C24.2857 36.69 24.369 36.7133 24.429 36.74L24.159 37.86C24.079 37.8267 23.989 37.8 23.889 37.78C23.7957 37.7533 23.7024 37.74 23.609 37.74C23.429 37.74 23.2557 37.7767 23.089 37.85C22.929 37.9167 22.7857 38.0133 22.659 38.14C22.539 38.26 22.4424 38.4033 22.369 38.57C22.2957 38.73 22.259 38.9067 22.259 39.1V42H21.219ZM27.2176 42.1C26.7376 42.1 26.3076 41.9833 25.9276 41.75C25.5543 41.51 25.2576 41.1867 25.0376 40.78C24.8176 40.3667 24.7076 39.8967 24.7076 39.37C24.7076 38.8433 24.8143 38.3767 25.0276 37.97C25.2476 37.5567 25.5443 37.2333 25.9176 37C26.291 36.76 26.7143 36.64 27.1876 36.64C27.4476 36.64 27.6976 36.6833 27.9376 36.77C28.1843 36.85 28.4043 36.9633 28.5976 37.11C28.791 37.25 28.941 37.4067 29.0476 37.58C29.161 37.7467 29.2176 37.9167 29.2176 38.09L28.9176 38.11V34.6H29.9476V42H28.9176V40.75H29.1176C29.1176 40.91 29.0643 41.07 28.9576 41.23C28.851 41.3833 28.7076 41.5267 28.5276 41.66C28.3543 41.7933 28.151 41.9 27.9176 41.98C27.691 42.06 27.4576 42.1 27.2176 42.1ZM27.3576 41.21C27.671 41.21 27.9476 41.13 28.1876 40.97C28.4276 40.81 28.6143 40.5933 28.7476 40.32C28.8876 40.04 28.9576 39.7233 28.9576 39.37C28.9576 39.0167 28.8876 38.7033 28.7476 38.43C28.6143 38.15 28.4276 37.93 28.1876 37.77C27.9476 37.61 27.671 37.53 27.3576 37.53C27.0443 37.53 26.7676 37.61 26.5276 37.77C26.2876 37.93 26.0976 38.15 25.9576 38.43C25.8243 38.7033 25.7576 39.0167 25.7576 39.37C25.7576 39.7233 25.8243 40.04 25.9576 40.32C26.0976 40.5933 26.2876 40.81 26.5276 40.97C26.7676 41.13 27.0443 41.21 27.3576 41.21ZM33.8155 42.1C33.2755 42.1 32.7955 41.9867 32.3755 41.76C31.9622 41.5267 31.6355 41.21 31.3955 40.81C31.1622 40.41 31.0455 39.95 31.0455 39.43C31.0455 39.0167 31.1122 38.64 31.2455 38.3C31.3788 37.96 31.5622 37.6667 31.7955 37.42C32.0355 37.1667 32.3188 36.9733 32.6455 36.84C32.9788 36.7 33.3388 36.63 33.7255 36.63C34.0655 36.63 34.3822 36.6967 34.6755 36.83C34.9688 36.9567 35.2222 37.1333 35.4355 37.36C35.6555 37.5867 35.8222 37.8567 35.9355 38.17C36.0555 38.4767 36.1122 38.8133 36.1055 39.18L36.0955 39.62H31.8055L31.5755 38.8H35.2055L35.0555 38.97V38.73C35.0355 38.51 34.9622 38.3133 34.8355 38.14C34.7088 37.9667 34.5488 37.83 34.3555 37.73C34.1622 37.63 33.9522 37.58 33.7255 37.58C33.3655 37.58 33.0622 37.65 32.8155 37.79C32.5688 37.9233 32.3822 38.1233 32.2555 38.39C32.1288 38.65 32.0655 38.9733 32.0655 39.36C32.0655 39.7267 32.1422 40.0467 32.2955 40.32C32.4488 40.5867 32.6655 40.7933 32.9455 40.94C33.2255 41.0867 33.5488 41.16 33.9155 41.16C34.1755 41.16 34.4155 41.1167 34.6355 41.03C34.8622 40.9433 35.1055 40.7867 35.3655 40.56L35.8855 41.29C35.7255 41.45 35.5288 41.59 35.2955 41.71C35.0688 41.83 34.8255 41.9267 34.5655 42C34.3122 42.0667 34.0622 42.1 33.8155 42.1ZM37.2249 42V36.75H38.2649V38.4L38.1649 38C38.2382 37.7467 38.3615 37.5167 38.5349 37.31C38.7149 37.1033 38.9182 36.94 39.1449 36.82C39.3782 36.7 39.6182 36.64 39.8649 36.64C39.9782 36.64 40.0849 36.65 40.1849 36.67C40.2915 36.69 40.3749 36.7133 40.4349 36.74L40.1649 37.86C40.0849 37.8267 39.9949 37.8 39.8949 37.78C39.8015 37.7533 39.7082 37.74 39.6149 37.74C39.4349 37.74 39.2615 37.7767 39.0949 37.85C38.9349 37.9167 38.7915 38.0133 38.6649 38.14C38.5449 38.26 38.4482 38.4033 38.3749 38.57C38.3015 38.73 38.2649 38.9067 38.2649 39.1V42H37.2249ZM43.0081 42.1C42.5681 42.1 42.1714 42.0233 41.8181 41.87C41.4648 41.7167 41.1714 41.49 40.9381 41.19L41.6381 40.59C41.8381 40.8233 42.0548 40.9933 42.2881 41.1C42.5281 41.2 42.7981 41.25 43.0981 41.25C43.2181 41.25 43.3281 41.2367 43.4281 41.21C43.5348 41.1767 43.6248 41.13 43.6981 41.07C43.7781 41.01 43.8381 40.94 43.8781 40.86C43.9181 40.7733 43.9381 40.68 43.9381 40.58C43.9381 40.4067 43.8748 40.2667 43.7481 40.16C43.6814 40.1133 43.5748 40.0633 43.4281 40.01C43.2881 39.95 43.1048 39.89 42.8781 39.83C42.4914 39.73 42.1748 39.6167 41.9281 39.49C41.6814 39.3633 41.4914 39.22 41.3581 39.06C41.2581 38.9333 41.1848 38.7967 41.1381 38.65C41.0914 38.4967 41.0681 38.33 41.0681 38.15C41.0681 37.93 41.1148 37.73 41.2081 37.55C41.3081 37.3633 41.4414 37.2033 41.6081 37.07C41.7814 36.93 41.9814 36.8233 42.2081 36.75C42.4414 36.6767 42.6881 36.64 42.9481 36.64C43.1948 36.64 43.4381 36.6733 43.6781 36.74C43.9248 36.8067 44.1514 36.9033 44.3581 37.03C44.5648 37.1567 44.7381 37.3067 44.8781 37.48L44.2881 38.13C44.1614 38.0033 44.0214 37.8933 43.8681 37.8C43.7214 37.7 43.5714 37.6233 43.4181 37.57C43.2648 37.5167 43.1248 37.49 42.9981 37.49C42.8581 37.49 42.7314 37.5033 42.6181 37.53C42.5048 37.5567 42.4081 37.5967 42.3281 37.65C42.2548 37.7033 42.1981 37.77 42.1581 37.85C42.1181 37.93 42.0981 38.02 42.0981 38.12C42.1048 38.2067 42.1248 38.29 42.1581 38.37C42.1981 38.4433 42.2514 38.5067 42.3181 38.56C42.3914 38.6133 42.5014 38.67 42.6481 38.73C42.7948 38.79 42.9814 38.8467 43.2081 38.9C43.5414 38.9867 43.8148 39.0833 44.0281 39.19C44.2481 39.29 44.4214 39.4067 44.5481 39.54C44.6814 39.6667 44.7748 39.8133 44.8281 39.98C44.8814 40.1467 44.9081 40.3333 44.9081 40.54C44.9081 40.84 44.8214 41.11 44.6481 41.35C44.4814 41.5833 44.2548 41.7667 43.9681 41.9C43.6814 42.0333 43.3614 42.1 43.0081 42.1Z" fill="#7E7E7E"/>
</svg>
