<svg width="68" height="45" viewBox="0 0 68 45" fill="none" xmlns="http://www.w3.org/2000/svg">
    <path d="M23.5913 8.42405C21.2482 10.7672 21.2482 14.5662 23.5913 16.9093L33.8341 27.152L44.0766 16.9093C46.4198 14.5662 46.4198 10.7672 44.0766 8.42405C41.7335 6.0809 37.9345 6.0809 35.5913 8.42405L33.8341 10.1815L32.0766 8.42405C29.7335 6.0809 25.9345 6.0809 23.5913 8.42405Z" stroke="#8E8E8E" stroke-width="1.5" stroke-linecap="round" stroke-linejoin="round"/>
    <path d="M17.7737 42L15.5437 35H16.6937L18.0437 39.38C18.0837 39.4867 18.1204 39.6133 18.1537 39.76C18.187 39.9 18.217 40.0433 18.2437 40.19C18.2704 40.3367 18.2937 40.4733 18.3137 40.6C18.3404 40.7267 18.3637 40.83 18.3837 40.91L18.0937 40.9C18.1937 40.5467 18.2704 40.2733 18.3237 40.08C18.3837 39.8867 18.4304 39.74 18.4637 39.64C18.497 39.5333 18.527 39.4433 18.5537 39.37L19.8137 36.21H20.7837L22.0037 39.37C22.0704 39.53 22.127 39.69 22.1737 39.85C22.227 40.0033 22.2737 40.16 22.3137 40.32C22.3537 40.4733 22.397 40.6367 22.4437 40.81L22.1837 40.88C22.217 40.7 22.2404 40.56 22.2537 40.46C22.2737 40.3533 22.2904 40.2667 22.3037 40.2C22.317 40.1333 22.3304 40.07 22.3437 40.01C22.357 39.9433 22.377 39.86 22.4037 39.76C22.437 39.66 22.4804 39.5233 22.5337 39.35L23.8637 35H25.0237L22.7937 42H22.0437L20.1937 37.62L20.2837 37.66L18.5037 42H17.7737ZM26.1546 42V36.75H27.1846V42H26.1546ZM26.6546 35.59C26.4346 35.59 26.2646 35.5333 26.1446 35.42C26.0246 35.3067 25.9646 35.1467 25.9646 34.94C25.9646 34.7467 26.0246 34.59 26.1446 34.47C26.2713 34.35 26.4413 34.29 26.6546 34.29C26.8746 34.29 27.0446 34.3467 27.1646 34.46C27.2846 34.5733 27.3446 34.7333 27.3446 34.94C27.3446 35.1333 27.2813 35.29 27.1546 35.41C27.0346 35.53 26.868 35.59 26.6546 35.59ZM30.5179 42.1C30.0779 42.1 29.6812 42.0233 29.3279 41.87C28.9745 41.7167 28.6812 41.49 28.4479 41.19L29.1479 40.59C29.3479 40.8233 29.5645 40.9933 29.7979 41.1C30.0379 41.2 30.3079 41.25 30.6079 41.25C30.7279 41.25 30.8379 41.2367 30.9379 41.21C31.0445 41.1767 31.1345 41.13 31.2079 41.07C31.2879 41.01 31.3479 40.94 31.3879 40.86C31.4279 40.7733 31.4479 40.68 31.4479 40.58C31.4479 40.4067 31.3845 40.2667 31.2579 40.16C31.1912 40.1133 31.0845 40.0633 30.9379 40.01C30.7979 39.95 30.6145 39.89 30.3879 39.83C30.0012 39.73 29.6845 39.6167 29.4379 39.49C29.1912 39.3633 29.0012 39.22 28.8679 39.06C28.7679 38.9333 28.6945 38.7967 28.6479 38.65C28.6012 38.4967 28.5779 38.33 28.5779 38.15C28.5779 37.93 28.6245 37.73 28.7179 37.55C28.8179 37.3633 28.9512 37.2033 29.1179 37.07C29.2912 36.93 29.4912 36.8233 29.7179 36.75C29.9512 36.6767 30.1979 36.64 30.4579 36.64C30.7045 36.64 30.9479 36.6733 31.1879 36.74C31.4345 36.8067 31.6612 36.9033 31.8679 37.03C32.0745 37.1567 32.2479 37.3067 32.3879 37.48L31.7979 38.13C31.6712 38.0033 31.5312 37.8933 31.3779 37.8C31.2312 37.7 31.0812 37.6233 30.9279 37.57C30.7745 37.5167 30.6345 37.49 30.5079 37.49C30.3679 37.49 30.2412 37.5033 30.1279 37.53C30.0145 37.5567 29.9179 37.5967 29.8379 37.65C29.7645 37.7033 29.7079 37.77 29.6679 37.85C29.6279 37.93 29.6079 38.02 29.6079 38.12C29.6145 38.2067 29.6345 38.29 29.6679 38.37C29.7079 38.4433 29.7612 38.5067 29.8279 38.56C29.9012 38.6133 30.0112 38.67 30.1579 38.73C30.3045 38.79 30.4912 38.8467 30.7179 38.9C31.0512 38.9867 31.3245 39.0833 31.5379 39.19C31.7579 39.29 31.9312 39.4067 32.0579 39.54C32.1912 39.6667 32.2845 39.8133 32.3379 39.98C32.3912 40.1467 32.4179 40.3333 32.4179 40.54C32.4179 40.84 32.3312 41.11 32.1579 41.35C31.9912 41.5833 31.7645 41.7667 31.4779 41.9C31.1912 42.0333 30.8712 42.1 30.5179 42.1ZM33.553 42V34.6H34.583V37.83L34.403 37.95C34.4697 37.7167 34.5997 37.5033 34.793 37.31C34.9863 37.11 35.2163 36.95 35.483 36.83C35.7497 36.7033 36.023 36.64 36.303 36.64C36.703 36.64 37.0363 36.72 37.303 36.88C37.5697 37.0333 37.7697 37.27 37.903 37.59C38.0363 37.91 38.103 38.3133 38.103 38.8V42H37.073V38.87C37.073 38.57 37.033 38.3233 36.953 38.13C36.873 37.93 36.7497 37.7867 36.583 37.7C36.4163 37.6067 36.2097 37.5667 35.963 37.58C35.763 37.58 35.5797 37.6133 35.413 37.68C35.2463 37.74 35.0997 37.8267 34.973 37.94C34.853 38.0533 34.7563 38.1867 34.683 38.34C34.6163 38.4867 34.583 38.6467 34.583 38.82V42H34.073C33.9863 42 33.8997 42 33.813 42C33.7263 42 33.6397 42 33.553 42ZM39.5203 42V34.6H40.5503V42H39.5203ZM42.18 42V36.75H43.21V42H42.18ZM42.68 35.59C42.46 35.59 42.29 35.5333 42.17 35.42C42.05 35.3067 41.99 35.1467 41.99 34.94C41.99 34.7467 42.05 34.59 42.17 34.47C42.2967 34.35 42.4667 34.29 42.68 34.29C42.9 34.29 43.07 34.3467 43.19 34.46C43.31 34.5733 43.37 34.7333 43.37 34.94C43.37 35.1333 43.3067 35.29 43.18 35.41C43.06 35.53 42.8934 35.59 42.68 35.59ZM46.5432 42.1C46.1032 42.1 45.7066 42.0233 45.3532 41.87C44.9999 41.7167 44.7066 41.49 44.4732 41.19L45.1732 40.59C45.3732 40.8233 45.5899 40.9933 45.8232 41.1C46.0632 41.2 46.3332 41.25 46.6332 41.25C46.7532 41.25 46.8632 41.2367 46.9632 41.21C47.0699 41.1767 47.1599 41.13 47.2332 41.07C47.3132 41.01 47.3732 40.94 47.4132 40.86C47.4532 40.7733 47.4732 40.68 47.4732 40.58C47.4732 40.4067 47.4099 40.2667 47.2832 40.16C47.2166 40.1133 47.1099 40.0633 46.9632 40.01C46.8232 39.95 46.6399 39.89 46.4132 39.83C46.0266 39.73 45.7099 39.6167 45.4632 39.49C45.2166 39.3633 45.0266 39.22 44.8932 39.06C44.7932 38.9333 44.7199 38.7967 44.6732 38.65C44.6266 38.4967 44.6032 38.33 44.6032 38.15C44.6032 37.93 44.6499 37.73 44.7432 37.55C44.8432 37.3633 44.9766 37.2033 45.1432 37.07C45.3166 36.93 45.5166 36.8233 45.7432 36.75C45.9766 36.6767 46.2232 36.64 46.4832 36.64C46.7299 36.64 46.9732 36.6733 47.2132 36.74C47.4599 36.8067 47.6866 36.9033 47.8932 37.03C48.0999 37.1567 48.2732 37.3067 48.4132 37.48L47.8232 38.13C47.6966 38.0033 47.5566 37.8933 47.4032 37.8C47.2566 37.7 47.1066 37.6233 46.9532 37.57C46.7999 37.5167 46.6599 37.49 46.5332 37.49C46.3932 37.49 46.2666 37.5033 46.1532 37.53C46.0399 37.5567 45.9432 37.5967 45.8632 37.65C45.7899 37.7033 45.7332 37.77 45.6932 37.85C45.6532 37.93 45.6332 38.02 45.6332 38.12C45.6399 38.2067 45.6599 38.29 45.6932 38.37C45.7332 38.4433 45.7866 38.5067 45.8532 38.56C45.9266 38.6133 46.0366 38.67 46.1832 38.73C46.3299 38.79 46.5166 38.8467 46.7432 38.9C47.0766 38.9867 47.3499 39.0833 47.5632 39.19C47.7832 39.29 47.9566 39.4067 48.0832 39.54C48.2166 39.6667 48.3099 39.8133 48.3632 39.98C48.4166 40.1467 48.4432 40.3333 48.4432 40.54C48.4432 40.84 48.3566 41.11 48.1832 41.35C48.0166 41.5833 47.7899 41.7667 47.5032 41.9C47.2166 42.0333 46.8966 42.1 46.5432 42.1ZM50.2284 42V35.41H51.2584V42H50.2284ZM49.1384 37.75V36.75H52.4784V37.75H49.1384Z" fill="#7E7E7E"/>
</svg>
