<svg width="58" height="45" viewBox="0 0 58 45" fill="none" xmlns="http://www.w3.org/2000/svg">
<path d="M19.828 23.7383C22.5369 22.2072 25.6664 21.3333 29 21.3333C32.3336 21.3333 35.4631 22.2072 38.172 23.7383M33 13.3333C33 15.5425 31.2091 17.3333 29 17.3333C26.7909 17.3333 25 15.5425 25 13.3333C25 11.1242 26.7909 9.33333 29 9.33333C31.2091 9.33333 33 11.1242 33 13.3333ZM41 16C41 22.6274 35.6274 28 29 28C22.3726 28 17 22.6274 17 16C17 9.37258 22.3726 4 29 4C35.6274 4 41 9.37258 41 16Z" stroke="#7E7E7E" stroke-width="1.3" stroke-linecap="round" stroke-linejoin="round"/>
<path d="M14.438 42V35H17.288C17.668 35 18.0113 35.0967 18.318 35.29C18.6313 35.4767 18.8813 35.7333 19.068 36.06C19.2547 36.3867 19.348 36.75 19.348 37.15C19.348 37.55 19.2547 37.9133 19.068 38.24C18.8813 38.5667 18.6313 38.83 18.318 39.03C18.0113 39.2233 17.668 39.32 17.288 39.32H15.518V42H14.438ZM15.518 38.28H17.268C17.448 38.28 17.6113 38.23 17.758 38.13C17.9047 38.0233 18.0213 37.8867 18.108 37.72C18.2013 37.5467 18.248 37.3567 18.248 37.15C18.248 36.9433 18.2013 36.7567 18.108 36.59C18.0213 36.4233 17.9047 36.29 17.758 36.19C17.6113 36.09 17.448 36.04 17.268 36.04H15.518V38.28ZM20.5159 42V36.75H21.5559V38.4L21.4559 38C21.5292 37.7467 21.6526 37.5167 21.8259 37.31C22.0059 37.1033 22.2092 36.94 22.4359 36.82C22.6692 36.7 22.9092 36.64 23.1559 36.64C23.2692 36.64 23.3759 36.65 23.4759 36.67C23.5826 36.69 23.6659 36.7133 23.7259 36.74L23.4559 37.86C23.3759 37.8267 23.2859 37.8 23.1859 37.78C23.0926 37.7533 22.9992 37.74 22.9059 37.74C22.7259 37.74 22.5526 37.7767 22.3859 37.85C22.2259 37.9167 22.0826 38.0133 21.9559 38.14C21.8359 38.26 21.7392 38.4033 21.6659 38.57C21.5926 38.73 21.5559 38.9067 21.5559 39.1V42H20.5159ZM26.6845 42.1C26.1712 42.1 25.7112 41.9833 25.3045 41.75C24.9045 41.51 24.5878 41.1867 24.3545 40.78C24.1212 40.3667 24.0045 39.8967 24.0045 39.37C24.0045 38.8433 24.1212 38.3767 24.3545 37.97C24.5878 37.5567 24.9045 37.2333 25.3045 37C25.7112 36.76 26.1712 36.64 26.6845 36.64C27.1912 36.64 27.6445 36.76 28.0445 37C28.4512 37.2333 28.7712 37.5567 29.0045 37.97C29.2378 38.3767 29.3545 38.8433 29.3545 39.37C29.3545 39.8967 29.2378 40.3667 29.0045 40.78C28.7712 41.1867 28.4512 41.51 28.0445 41.75C27.6445 41.9833 27.1912 42.1 26.6845 42.1ZM26.6845 41.16C26.9978 41.16 27.2778 41.0833 27.5245 40.93C27.7712 40.77 27.9645 40.5567 28.1045 40.29C28.2445 40.0167 28.3112 39.71 28.3045 39.37C28.3112 39.0233 28.2445 38.7167 28.1045 38.45C27.9645 38.1767 27.7712 37.9633 27.5245 37.81C27.2778 37.6567 26.9978 37.58 26.6845 37.58C26.3712 37.58 26.0878 37.66 25.8345 37.82C25.5878 37.9733 25.3945 38.1867 25.2545 38.46C25.1145 38.7267 25.0478 39.03 25.0545 39.37C25.0478 39.71 25.1145 40.0167 25.2545 40.29C25.3945 40.5567 25.5878 40.77 25.8345 40.93C26.0878 41.0833 26.3712 41.16 26.6845 41.16ZM30.8515 42V36.16C30.8515 35.86 30.9182 35.5933 31.0515 35.36C31.1849 35.1267 31.3682 34.9433 31.6015 34.81C31.8349 34.6767 32.1049 34.61 32.4115 34.61C32.6249 34.61 32.8249 34.65 33.0115 34.73C33.1982 34.81 33.3482 34.9167 33.4615 35.05L33.1115 35.84C33.0249 35.76 32.9282 35.6967 32.8215 35.65C32.7215 35.5967 32.6249 35.57 32.5315 35.57C32.3915 35.57 32.2715 35.5933 32.1715 35.64C32.0782 35.68 32.0082 35.7467 31.9615 35.84C31.9149 35.9267 31.8915 36.0333 31.8915 36.16V42H31.3715C31.2849 42 31.1982 42 31.1115 42C31.0249 42 30.9382 42 30.8515 42ZM30.0115 37.79V36.84H33.1315V37.79H30.0115ZM34.3815 42V36.75H35.4115V42H34.3815ZM34.8815 35.59C34.6615 35.59 34.4915 35.5333 34.3715 35.42C34.2515 35.3067 34.1915 35.1467 34.1915 34.94C34.1915 34.7467 34.2515 34.59 34.3715 34.47C34.4982 34.35 34.6682 34.29 34.8815 34.29C35.1015 34.29 35.2715 34.3467 35.3915 34.46C35.5115 34.5733 35.5715 34.7333 35.5715 34.94C35.5715 35.1333 35.5082 35.29 35.3815 35.41C35.2615 35.53 35.0949 35.59 34.8815 35.59ZM37.0105 42V34.6H38.0405V42H37.0105ZM41.8526 42.1C41.3126 42.1 40.8326 41.9867 40.4126 41.76C39.9993 41.5267 39.6726 41.21 39.4326 40.81C39.1993 40.41 39.0826 39.95 39.0826 39.43C39.0826 39.0167 39.1493 38.64 39.2826 38.3C39.416 37.96 39.5993 37.6667 39.8326 37.42C40.0726 37.1667 40.356 36.9733 40.6826 36.84C41.016 36.7 41.376 36.63 41.7626 36.63C42.1026 36.63 42.4193 36.6967 42.7126 36.83C43.006 36.9567 43.2593 37.1333 43.4726 37.36C43.6926 37.5867 43.8593 37.8567 43.9726 38.17C44.0926 38.4767 44.1493 38.8133 44.1426 39.18L44.1326 39.62H39.8426L39.6126 38.8H43.2426L43.0926 38.97V38.73C43.0726 38.51 42.9993 38.3133 42.8726 38.14C42.746 37.9667 42.586 37.83 42.3926 37.73C42.1993 37.63 41.9893 37.58 41.7626 37.58C41.4026 37.58 41.0993 37.65 40.8526 37.79C40.606 37.9233 40.4193 38.1233 40.2926 38.39C40.166 38.65 40.1026 38.9733 40.1026 39.36C40.1026 39.7267 40.1793 40.0467 40.3326 40.32C40.486 40.5867 40.7026 40.7933 40.9826 40.94C41.2626 41.0867 41.586 41.16 41.9526 41.16C42.2126 41.16 42.4526 41.1167 42.6726 41.03C42.8993 40.9433 43.1426 40.7867 43.4026 40.56L43.9226 41.29C43.7626 41.45 43.566 41.59 43.3326 41.71C43.106 41.83 42.8626 41.9267 42.6026 42C42.3493 42.0667 42.0993 42.1 41.8526 42.1Z" fill="#7E7E7E"/>
</svg>
